<?xml version="1.0" encoding="UTF-8" standalone="no"?>
<!DOCTYPE svg PUBLIC "-//W3C//DTD SVG 1.1//EN" "http://www.w3.org/Graphics/SVG/1.1/DTD/svg11.dtd">
<svg version="1.1" xmlns="http://www.w3.org/2000/svg" xmlns:xlink="http://www.w3.org/1999/xlink" preserveAspectRatio="xMidYMid meet" viewBox="0 0 350 350" width="350" height="350"><defs><path d="M346.01 175.07C346.01 269.46 270.68 346.09 177.89 346.09C85.11 346.09 9.77 269.46 9.77 175.07C9.77 80.69 85.11 4.06 177.89 4.06C270.68 4.06 346.01 80.69 346.01 175.07Z" id="b2wMMZiMg2"></path><path d="M258.18 43.64C258.18 55.88 248.85 65.81 237.36 65.81C225.86 65.81 216.53 55.88 216.53 43.64C216.53 31.41 225.86 21.48 237.36 21.48C248.85 21.48 258.18 31.41 258.18 43.64Z" id="a2hSlRkOlC"></path><path d="M125.23 117.75C125.23 129.99 115.9 139.92 104.41 139.92C92.91 139.92 83.58 129.99 83.58 117.75C83.58 105.52 92.91 95.58 104.41 95.58C115.9 95.58 125.23 105.52 125.23 117.75Z" id="a4QFsRVHsS"></path><path d="M270.52 252.03C270.52 264.26 279.85 274.2 291.34 274.2C302.83 274.2 312.16 264.26 312.16 252.03C312.16 239.79 302.83 229.86 291.34 229.86C279.85 229.86 270.52 239.79 270.52 252.03Z" id="b2tKj1d1S"></path><path d="M75.87 229.86C75.87 242.1 66.54 252.03 55.05 252.03C43.56 252.03 34.23 242.1 34.23 229.86C34.23 217.63 43.56 207.69 55.05 207.69C66.54 207.69 75.87 217.63 75.87 229.86Z" id="fInJksfjB"></path><path d="M108.57 121.23L233.5 43.64" id="a195sK96X7"></path><path d="M104.41 117.75L287.95 249.18" id="b1rR1g8At"></path><path d="M55.05 229.86L300.73 258.33" id="aJ7yyvLzT"></path></defs><g><g><g><use xlink:href="#b2wMMZiMg2" opacity="1" fill="#e92666" fill-opacity="1"></use><g><use xlink:href="#b2wMMZiMg2" opacity="1" fill-opacity="0" stroke="#fefeff" stroke-width="1" stroke-opacity="1"></use></g></g><g><use xlink:href="#a2hSlRkOlC" opacity="1" fill="#ffffff" fill-opacity="1"></use><g><use xlink:href="#a2hSlRkOlC" opacity="1" fill-opacity="0" stroke="#ffffff" stroke-width="1" stroke-opacity="1"></use></g></g><g><use xlink:href="#a4QFsRVHsS" opacity="1" fill="#ffffff" fill-opacity="1"></use><g><use xlink:href="#a4QFsRVHsS" opacity="1" fill-opacity="0" stroke="#ffffff" stroke-width="1" stroke-opacity="1"></use></g></g><g><use xlink:href="#b2tKj1d1S" opacity="1" fill="#ffffff" fill-opacity="1"></use><g><use xlink:href="#b2tKj1d1S" opacity="1" fill-opacity="0" stroke="#ffffff" stroke-width="1" stroke-opacity="1"></use></g></g><g><use xlink:href="#fInJksfjB" opacity="1" fill="#ffffff" fill-opacity="1"></use><g><use xlink:href="#fInJksfjB" opacity="1" fill-opacity="0" stroke="#ffffff" stroke-width="1" stroke-opacity="1"></use></g></g><g><use xlink:href="#a195sK96X7" opacity="1" fill="#ffffff" fill-opacity="1"></use><g><use xlink:href="#a195sK96X7" opacity="1" fill-opacity="0" stroke="#fcf4f4" stroke-width="12" stroke-opacity="1"></use></g></g><g><use xlink:href="#b1rR1g8At" opacity="1" fill="#ffffff" fill-opacity="1"></use><g><use xlink:href="#b1rR1g8At" opacity="1" fill-opacity="0" stroke="#fcf4f4" stroke-width="12" stroke-opacity="1"></use></g></g><g><use xlink:href="#aJ7yyvLzT" opacity="1" fill="#ffffff" fill-opacity="1"></use><g><use xlink:href="#aJ7yyvLzT" opacity="1" fill-opacity="0" stroke="#fcf4f4" stroke-width="12" stroke-opacity="1"></use></g></g></g></g></svg>